<svg xmlns="http://www.w3.org/2000/svg" viewBox="0 0 512 512" width="512" height="512">
  <defs>
    <linearGradient id="bg-grad" x1="0%" y1="0%" x2="100%" y2="100%">
      <stop offset="0%" stop-color="#313244"/>
      <stop offset="100%" stop-color="#11111b"/>
    </linearGradient>

    <linearGradient id="aura-grad" x1="0%" y1="0%" x2="100%" y2="100%">
      <stop offset="0%" stop-color="#74c7ec"/>
      <stop offset="50%" stop-color="#cba6f7"/>
      <stop offset="100%" stop-color="#f2cdcd"/>
    </linearGradient>

    <linearGradient id="stroke-grad" x1="0%" y1="0%" x2="100%" y2="100%">
      <stop offset="0%" stop-color="#89b4fa"/>
      <stop offset="100%" stop-color="#b4befe" stop-opacity="0.2"/>
    </linearGradient>

    <filter id="glow" x="-20%" y="-20%" width="140%" height="140%">
      <feGaussianBlur stdDeviation="12" result="blur" />
      <feComposite in="SourceGraphic" in2="blur" operator="over" />
    </filter>
  </defs>

  <rect width="512" height="512" rx="112" fill="url(#bg-grad)" stroke="url(#stroke-grad)" stroke-width="2"/>

  <circle cx="256" cy="256" r="180" fill="none" stroke="#45475a" stroke-width="4" stroke-dasharray="16 12" opacity="0.5"/>
  <circle cx="256" cy="256" r="140" fill="none" stroke="#585b70" stroke-width="1" opacity="0.3"/>

  <g filter="url(#glow)">
    <path d="M140 180 L320 180 C353.13 180 380 206.86 380 240 C380 256.5 373.3 271.4 362.4 282.4 L240 404" 
          fill="none" 
          stroke="url(#aura-grad)" 
          stroke-width="36" 
          stroke-linecap="round" 
          stroke-linejoin="round"/>
          
    <path d="M372 332 L192 332 C158.87 332 132 305.14 132 272 C132 255.5 138.7 240.6 149.6 229.6 L272 108" 
          fill="none" 
          stroke="url(#aura-grad)" 
          stroke-width="36" 
          stroke-linecap="round" 
          stroke-linejoin="round"/>

    <line x1="160" y1="256" x2="352" y2="256" stroke="#cdd6f4" stroke-width="12" stroke-linecap="round" opacity="0.9"/>
  </g>
</svg>